<svg width="19" height="20" viewBox="0 0 19 20" fill="none" xmlns="http://www.w3.org/2000/svg">
<path d="M12.6667 6.66699V4.33366C12.6667 3.40024 12.6667 2.93353 12.485 2.57701C12.3252 2.2634 12.0702 2.00843 11.7567 1.84865C11.4002 1.66699 10.9334 1.66699 10 1.66699H3.66667C2.73325 1.66699 2.26653 1.66699 1.91002 1.84865C1.59641 2.00843 1.34144 2.2634 1.18166 2.57701C1 2.93353 1 3.40024 1 4.33366V10.667C1 11.6004 1 12.0672 1.18166 12.4237C1.34144 12.7372 1.59641 12.9922 1.91002 13.152C2.26653 13.3337 2.73325 13.3337 3.66667 13.3337H6M8.66667 18.3337H15C15.9334 18.3337 16.4002 18.3337 16.7567 18.152C17.0702 17.9922 17.3252 17.7372 17.485 17.4237C17.6667 17.0672 17.6667 16.6004 17.6667 15.667V9.33366C17.6667 8.40024 17.6667 7.93352 17.485 7.57701C17.3252 7.2634 17.0702 7.00843 16.7567 6.84865C16.4002 6.66699 15.9334 6.66699 15 6.66699H8.66667C7.73325 6.66699 7.26653 6.66699 6.91002 6.84865C6.59641 7.00843 6.34144 7.2634 6.18166 7.57701C6 7.93352 6 8.40024 6 9.33366V15.667C6 16.6004 6 17.0672 6.18166 17.4237C6.34144 17.7372 6.59641 17.9922 6.91002 18.152C7.26653 18.3337 7.73325 18.3337 8.66667 18.3337Z" stroke="#A4A7AE" stroke-width="1.5" stroke-linecap="round" stroke-linejoin="round"/>
</svg>
